<?xml version="1.0" encoding="UTF-8"?>
<svg version="1.1" xmlns="http://www.w3.org/2000/svg" width="32" height="32">
<path d="M0 0 C10.56 0 21.12 0 32 0 C32 10.56 32 21.12 32 32 C21.44 32 10.88 32 0 32 C0 21.44 0 10.88 0 0 Z " fill="#03A2B9" transform="translate(0,0)"/>
<path d="M0 0 C0.66 0 1.32 0 2 0 C1.125 4.75 1.125 4.75 0 7 C0.66 7 1.32 7 2 7 C2 8.65 2 10.3 2 12 C3.98 12 5.96 12 8 12 C8 12.66 8 13.32 8 14 C7.34 14 6.68 14 6 14 C5.71125 14.5775 5.4225 15.155 5.125 15.75 C4.08333333 17.83333333 3.04166667 19.91666667 2 22 C1.34 22 0.68 22 0 22 C0.875 17.25 0.875 17.25 2 15 C1.34 15 0.68 15 0 15 C0 13.35 0 11.7 0 10 C-1.98 10 -3.96 10 -6 10 C-4.69063102 7.07909997 -3.24380538 5.24380538 -1 3 C-0.67 2.01 -0.34 1.02 0 0 Z " fill="#EAF7F9" transform="translate(15,5)"/>
<path d="M0 0 C0.66 0 1.32 0 2 0 C1.125 4.75 1.125 4.75 0 7 C0.66 7.33 1.32 7.66 2 8 C1.360625 7.814375 0.72125 7.62875 0.0625 7.4375 C-0.9584375 7.2209375 -0.9584375 7.2209375 -2 7 C-2.33 7.33 -2.66 7.66 -3 8 C-2.01 8.66 -1.02 9.32 0 10 C-1.98 10 -3.96 10 -6 10 C-4.69063102 7.07909997 -3.24380538 5.24380538 -1 3 C-0.67 2.01 -0.34 1.02 0 0 Z " fill="#D6F0F3" transform="translate(15,5)"/>
</svg>