<?xml version="1.0" standalone="no"?><svg version="1.0" xmlns="http://www.w3.org/2000/svg" width="1000.000000pt" height="1000.000000pt" viewBox="0 0 1000.000000 1000.000000" preserveAspectRatio="xMidYMid meet"><g transform="translate(0.000000,1000.000000) scale(0.100000,-0.100000)" fill="white" stroke="none"><path d="M1521 8314 c-508 -85 -911 -484 -1006 -996 -13 -73 -16 -154 -13 -510 3 -460 3 -459 61 -505 13 -10 605 -306 1315 -658 711 -352 1292 -643 1292 -646 0 -3 -129 -69 -287 -147 -866 -425 -2309 -1144 -2326 -1159 -11 -10 -28 -36 -38 -58 -17 -37 -19 -74 -19 -450 0 -451 6 -513 61 -679 63 -191 171 -360 320 -501 187 -178 435 -297 678 -325 54 -6 1027 -10 2656 -10 2803 0 2670 -3 2850 56 106 35 274 122 358 185 211 159 355 365 448 640 19 54 37 99 40 99 3 0 342 -166 752 -370 411 -203 758 -370 772 -370 14 0 34 9 45 20 19 19 20 33 20 466 0 444 0 447 -22 486 -22 38 -43 50 -463 257 -2035 1005 -3732 1845 -3739 1852 -8 7 332 178 3028 1514 921 458 1152 576 1170 600 21 29 21 38 24 487 3 448 2 458 -18 478 -11 11 -31 20 -43 20 -13 0 -363 -168 -778 -374 -626 -310 -755 -371 -761 -357 -3 9 -18 53 -32 99 -61 196 -160 358 -310 508 -185 185 -391 295 -649 345 -95 18 -182 19 -2700 18 -2188 -1 -2615 -3 -2686 -15z m5290 -935 c71 -34 125 -87 158 -158 24 -52 26 -66 25 -189 -1 -73 -5 -137 -10 -142 -5 -5 -628 -315 -1384 -690 l-1374 -681 -45 20 c-25 10 -657 322 -1404 693 l-1359 673 4 135 c3 114 7 143 26 185 39 85 112 147 202 171 35 10 597 12 2575 11 l2530 -2 56 -26z m-1768 -3305 c452 -223 1076 -533 1387 -688 l565 -281 0 -130 c-1 -154 -16 -211 -76 -279 -22 -25 -65 -57 -97 -73 l-57 -28 -2555 0 -2555 0 -47 22 c-66 30 -132 95 -159 156 -20 44 -24 72 -27 187 l-4 136 349 171 c191 95 821 406 1398 692 578 287 1051 521 1053 521 2 0 373 -183 825 -406z"/></g></svg>